<svg width="400" height="146" viewBox="0 0 400 146" fill="none" xmlns="http://www.w3.org/2000/svg">
<path fill-rule="evenodd" clip-rule="evenodd" d="M0.799805 112.2V92.8614L70.3057 2H100.606L35.6215 88.2H78.3998V60H104.8V88.2H129.6V112.2H104.8V144H77.5998V112.2H0.799805ZM78.5998 111.2V143H103.8V111.2H128.6V89.2H103.8V61H79.3998V89.2H33.6153L98.5998 3H70.7998L1.7998 93.2V111.2H78.5998ZM167.411 137.447L167.405 137.444C158.426 131.73 151.375 123.443 146.239 112.629L146.237 112.625C141.093 101.66 138.542 88.4398 138.542 73C138.542 57.5616 141.092 44.4068 146.238 33.5726C151.373 22.6274 158.424 14.2718 167.405 8.55634L167.411 8.55269C176.511 2.84786 186.697 0 197.942 0C209.318 0 219.507 2.84665 228.479 8.55634C237.459 14.271 244.509 22.6251 249.644 33.568C254.925 44.4039 257.542 57.5606 257.542 73C257.542 88.4421 254.924 101.665 249.644 112.632C244.508 123.444 237.457 131.73 228.479 137.444C219.507 143.153 209.318 146 197.942 146C186.697 146 176.511 143.152 167.411 137.447ZM248.742 112.2C253.942 101.4 256.542 88.3333 256.542 73C256.542 57.6667 253.942 44.6667 248.742 34C243.675 23.2 236.742 15 227.942 9.4C219.142 3.8 209.142 1 197.942 1C186.875 1 176.875 3.8 167.942 9.4C159.142 15 152.209 23.2 147.142 34C142.075 44.6667 139.542 57.6667 139.542 73C139.542 88.3333 142.075 101.4 147.142 112.2C152.209 122.867 159.142 131 167.942 136.6C176.875 142.2 186.875 145 197.942 145C209.142 145 219.142 142.2 227.942 136.6C236.742 131 243.675 122.867 248.742 112.2ZM225.206 45.5521L225.202 45.5417C222.583 38.3377 218.95 33.128 214.357 29.8107L214.349 29.8054L214.342 29.8C209.731 26.3415 204.279 24.6 197.942 24.6C191.881 24.6 186.489 26.3361 181.731 29.8078L181.727 29.8107C177.13 33.1309 173.43 38.3453 170.678 45.5525C168.068 52.6011 166.742 61.7368 166.742 73C166.742 84.1258 168.067 93.2643 170.679 100.45C173.429 107.651 177.128 112.935 181.73 116.391C186.485 119.728 191.878 121.4 197.942 121.4C204.284 121.4 209.739 119.722 214.349 116.395C218.95 112.941 222.584 107.66 225.202 100.458L225.205 100.451L225.208 100.443C227.95 93.2613 229.342 84.1259 229.342 73C229.342 61.7379 227.949 52.6063 225.21 45.5625L225.206 45.5521ZM214.942 117.2C210.142 120.667 204.475 122.4 197.942 122.4C191.675 122.4 186.075 120.667 181.142 117.2C176.342 113.6 172.542 108.133 169.742 100.8C167.075 93.4667 165.742 84.2 165.742 73C165.742 61.6667 167.075 52.4 169.742 45.2C172.542 37.8667 176.342 32.4667 181.142 29C186.075 25.4 191.675 23.6 197.942 23.6C204.475 23.6 210.142 25.4 214.942 29C219.742 32.4667 223.475 37.8667 226.142 45.2C228.942 52.4 230.342 61.6667 230.342 73C230.342 84.2 228.942 93.4667 226.142 100.8C223.475 108.133 219.742 113.6 214.942 117.2ZM271.112 112.2V92.8614L340.618 2H370.919L305.934 88.2H348.712V60H375.112V88.2H399.912V112.2H375.112V144H347.912V112.2H271.112ZM348.912 111.2V143H374.112V111.2H398.912V89.2H374.112V61H349.712V89.2H303.928L368.912 3H341.112L272.112 93.2V111.2H348.912Z" fill="#C2C2C2"/>
</svg>
