<svg width="32" height="32" viewBox="0 0 32 32" fill="none" xmlns="http://www.w3.org/2000/svg">
<path d="M18.6377 16.5956C20.289 15.5635 21.3899 13.7747 21.3899 11.7106C21.3899 8.54557 18.8441 6 15.6793 6C12.5143 6 9.96871 8.54581 9.96871 11.7106C9.96871 13.7747 11.0696 15.5635 12.7209 16.5956C9.41836 17.7652 6.94144 20.8613 6.66603 24.5766C6.66603 24.783 6.66601 25 6.66602 25.3333C6.99935 25.3333 7.21638 25.3333 7.35414 25.3333H24.0734C24.2798 25.3333 24.4282 25.3333 24.7615 25.3333C24.7993 25 24.7615 24.783 24.7615 24.5766C24.4857 20.8614 22.0089 17.765 18.6377 16.5956ZM11.3443 11.7106C11.3443 9.30257 13.2709 7.37599 15.679 7.37599C18.087 7.37599 20.0136 9.30257 20.0136 11.7106C20.0136 14.1186 18.087 16.0452 15.679 16.0452C13.2709 16.0452 11.3443 14.1186 11.3443 11.7106ZM8.11066 23.8888C8.72989 20.2423 11.8949 17.4211 15.6788 17.4211C19.4631 17.4211 22.6968 20.1733 23.247 23.8888H8.11066Z" fill="black"/>
</svg>
