<svg width="48" height="48" viewBox="0 0 48 48" fill="none" xmlns="http://www.w3.org/2000/svg">
<path d="M27.9575 24.8934C30.4345 23.3453 32.0859 20.6621 32.0859 17.5659C32.0859 12.8184 28.2672 9 23.52 9C18.7724 9 14.954 12.8187 14.954 17.5659C14.954 20.6621 16.6054 23.3453 19.0824 24.8934C14.1285 26.6477 10.4131 31.292 10 36.8649C10 37.1745 9.99999 37.5 10 38C10.5 38 10.8255 38 11.0322 38H36.111C36.4207 38 36.6432 38 37.1432 38C37.2 37.5 37.1432 37.1745 37.1432 36.8649C36.7296 31.2921 33.0144 26.6476 27.9575 24.8934ZM17.0175 17.5659C17.0175 13.9538 19.9074 11.064 23.5194 11.064C27.1315 11.064 30.0213 13.9538 30.0213 17.5659C30.0213 21.178 27.1315 24.0678 23.5194 24.0678C19.9074 24.0678 17.0175 21.178 17.0175 17.5659ZM12.167 35.8332C13.0958 30.3635 17.8434 26.1316 23.5192 26.1316C29.1956 26.1316 34.0462 30.26 34.8715 35.8332H12.167Z" fill="black"/>
</svg>
