<svg width="17" height="18" viewBox="0 0 17 18" fill="none" xmlns="http://www.w3.org/2000/svg">
<path d="M9.2848 0.656303L0.319952 8.43521C0.238832 8.50553 0.173774 8.59246 0.129187 8.69012C0.0845989 8.78777 0.0615231 8.89387 0.0615231 9.00123C0.0615231 9.10858 0.0845989 9.21468 0.129187 9.31234C0.173774 9.40999 0.238832 9.49693 0.319953 9.56724L9.2848 17.3438C9.31182 17.3673 9.34502 17.3825 9.38046 17.3877C9.4159 17.3929 9.45207 17.3877 9.48467 17.3729C9.51727 17.3581 9.54493 17.3342 9.56434 17.3041C9.58375 17.274 9.59411 17.239 9.59417 17.2032L9.59417 15.3047C9.59417 15.1969 9.5473 15.0938 9.46527 15.0211L3.55198 9.89068L16.7496 9.89068C16.8528 9.89068 16.9371 9.8063 16.9371 9.70318L16.9371 8.29693C16.9371 8.1938 16.8528 8.10943 16.7496 8.10943L3.55198 8.10943L9.46526 2.97896C9.5473 2.90865 9.59417 2.80552 9.59417 2.69537L9.59417 0.796928C9.59417 0.637553 9.40667 0.550834 9.2848 0.656303Z" fill="white"/>
</svg>
