<svg width="33" height="32" viewBox="0 0 33 32" fill="none" xmlns="http://www.w3.org/2000/svg">
<path d="M5.18887 22.2977L15.5608 10.3446C15.6545 10.2364 15.7704 10.1497 15.9006 10.0902C16.0308 10.0308 16.1723 10 16.3154 10C16.4586 10 16.6 10.0308 16.7303 10.0902C16.8605 10.1497 16.9764 10.2364 17.0701 10.3446L27.4389 22.2977C27.4702 22.3337 27.4905 22.378 27.4974 22.4253C27.5043 22.4725 27.4974 22.5207 27.4777 22.5642C27.4579 22.6077 27.4261 22.6445 27.386 22.6704C27.3458 22.6963 27.2991 22.7101 27.2514 22.7102L24.7201 22.7102C24.5764 22.7102 24.4389 22.6477 24.342 22.5383L16.3138 13.4664L15.1264 14.654L8.28575 22.5383C8.192 22.6477 8.0545 22.7102 7.90762 22.7102L5.37637 22.7102C5.16387 22.7102 5.04825 22.4602 5.18887 22.2977Z" fill="white"/>
</svg>
