<svg width="17" height="18" viewBox="0 0 17 18" fill="none" xmlns="http://www.w3.org/2000/svg">
<path d="M7.7152 0.656303L16.68 8.43521C16.7612 8.50553 16.8262 8.59246 16.8708 8.69012C16.9154 8.78777 16.9385 8.89387 16.9385 9.00123C16.9385 9.10858 16.9154 9.21468 16.8708 9.31234C16.8262 9.40999 16.7612 9.49693 16.68 9.56724L7.7152 17.3438C7.68818 17.3673 7.65498 17.3825 7.61954 17.3877C7.5841 17.3929 7.54793 17.3877 7.51533 17.3729C7.48273 17.3581 7.45507 17.3342 7.43566 17.3041C7.41625 17.274 7.40589 17.239 7.40583 17.2032L7.40583 15.3047C7.40583 15.1969 7.4527 15.0938 7.53473 15.0211L13.448 9.89068L0.25036 9.89068C0.147235 9.89068 0.0628603 9.8063 0.0628603 9.70318L0.0628604 8.29693C0.0628604 8.1938 0.147235 8.10943 0.25036 8.10943L13.448 8.10943L7.53474 2.97896C7.4527 2.90865 7.40583 2.80552 7.40583 2.69537L7.40583 0.796928C7.40583 0.637553 7.59333 0.550834 7.7152 0.656303Z" fill="black"/>
</svg>
