<svg width="80" height="80" viewBox="0 0 80 80" fill="none" xmlns="http://www.w3.org/2000/svg">
<path d="M50.2793 10H56.1163V27.1039H50.2793V10ZM23.2668 10H29.1038V27.1039H23.2668V10ZM12 50.317V46.1089H24.6243V50.317H12ZM12 62.8055V58.5974H24.6243V62.8055H12ZM67.3839 58.5974V62.8055H54.7596V58.5974H67.3839ZM65.0762 55.611H53.2664C52.452 55.611 51.7732 56.2898 51.7732 57.1042V64.163C51.7732 64.9774 52.452 65.6562 53.2664 65.6562H65.0762V70H14.3077V65.6562H26.1175C26.9319 65.6562 27.6107 64.9774 27.6107 64.163V57.1042C27.6107 56.2898 26.9319 55.611 26.1175 55.611H14.3077V53.1676H26.1175C26.9319 53.1676 27.6107 52.4889 27.6107 51.6744V44.6157C27.6107 43.8012 26.9319 43.1225 26.1175 43.1225H14.3077V39.1859C19.0587 38.3715 22.5881 34.5706 23.2668 29.9553H30.597C31.4115 29.9553 32.0902 29.2765 32.0902 28.4621V15.2948C34.6694 16.245 37.2485 16.788 39.8277 16.788C42.4068 16.788 44.986 16.245 47.5652 15.2948V28.4621C47.5652 29.2765 48.2439 29.9553 49.0583 29.9553H56.3886C57.0673 34.7063 60.5967 38.3715 65.3477 39.1859V43.1225H53.2664C52.452 43.1225 51.7732 43.8012 51.7732 44.6157V51.6744C51.7732 52.4889 52.452 53.1676 53.2664 53.1676H65.0762V55.611Z" fill="black"/>
<path d="M54.7476 46.0859H67.4006V50.3371H54.7476V46.0859Z" fill="#758B6F"/>
<path d="M12 46.0859H24.653V50.3371H12V46.0859Z" fill="#758B6F"/>
<path d="M54.7476 58.5625H67.4006V62.8137H54.7476V58.5625Z" fill="#758B6F"/>
<path d="M12 58.5625H24.653V62.8137H12V58.5625Z" fill="#758B6F"/>
</svg>
