<svg width="32" height="32" viewBox="0 0 32 32" fill="none" xmlns="http://www.w3.org/2000/svg">
<path d="M6.00001 6.66667C6.00001 6.48986 6.00005 6.14137 6 6C6 6 6.48987 6 6.66668 6H8.66668C8.81539 6.00004 9 6 9.31335 6C9.33333 6.33333 9.33333 6.33333 9.33333 6.33333L9.85335 8.66667H25.3333C25.4312 8.66676 25.5279 8.6884 25.6165 8.73007C25.7051 8.77173 25.7834 8.83239 25.8459 8.90774C25.9084 8.98308 25.9535 9.07127 25.9781 9.16602C26.0026 9.26078 26.006 9.35978 25.988 9.456L23.988 20.1227C23.9594 20.2754 24 20.3333 23.8856 20.6667C23.6667 20.6667 23.4888 20.6665 23.3333 20.6667H11.3333C11.1779 20.6665 11 20.6667 10.7811 20.6667C10.7811 20.4757 10.7073 20.2754 10.6787 20.1227L8.68001 9.476L8.14668 7.33333H6.66668C6.48987 7.33333 6.00002 7.33333 6.00002 7.33333C6 7 6.00001 6.84348 6.00001 6.66667ZM10.136 10L11.8867 19.3333H22.78L24.5307 10H10.136Z" fill="black"/>
<path d="M14.1673 23.8327C14.1673 24.7532 13.4211 25.4993 12.5007 25.4993C11.5802 25.4993 10.834 24.7532 10.834 23.8327C10.834 22.9122 11.5802 22.166 12.5007 22.166C13.4211 22.166 14.1673 22.9122 14.1673 23.8327Z" fill="black"/>
<path d="M23.3333 23.8327C23.3333 24.7532 22.5871 25.4993 21.6667 25.4993C20.7462 25.4993 20 24.7532 20 23.8327C20 22.9122 20.7462 22.166 21.6667 22.166C22.5871 22.166 23.3333 22.9122 23.3333 23.8327Z" fill="black"/>
</svg>
