<svg width="48" height="48" viewBox="0 0 48 48" fill="none" xmlns="http://www.w3.org/2000/svg">
<path d="M9.00002 10C9.00002 9.73478 9.00008 9.21205 9 9C9 9 9.7348 9 10 9H13C13.2231 9.00006 13.5 9 13.97 9C14 9.5 14 9.5 14 9.5L14.78 13H38C38.1469 13.0001 38.2919 13.0326 38.4247 13.0951C38.5576 13.1576 38.6751 13.2486 38.7688 13.3616C38.8625 13.4746 38.9302 13.6069 38.9671 13.749C39.0039 13.8912 39.009 14.0397 38.982 14.184L35.982 30.184C35.9391 30.4132 36 30.5 35.8284 31C35.5 31 35.2332 30.9998 35 31H17C16.7669 30.9998 16.5 31 16.1716 31C16.1716 30.7135 16.0609 30.4132 16.018 30.184L13.02 14.214L12.22 11H10C9.7348 11 9.00003 11 9.00003 11C9 10.5 9.00002 10.2652 9.00002 10ZM15.204 15L17.83 29H34.17L36.796 15H15.204Z" fill="white"/>
<path d="M21.25 35.75C21.25 37.1307 20.1307 38.25 18.75 38.25C17.3693 38.25 16.25 37.1307 16.25 35.75C16.25 34.3693 17.3693 33.25 18.75 33.25C20.1307 33.25 21.25 34.3693 21.25 35.75Z" fill="white"/>
<path d="M35 35.75C35 37.1307 33.8807 38.25 32.5 38.25C31.1193 38.25 30 37.1307 30 35.75C30 34.3693 31.1193 33.25 32.5 33.25C33.8807 33.25 35 34.3693 35 35.75Z" fill="white"/>
</svg>
