<svg width="24" height="24" viewBox="0 0 24 24" fill="none" xmlns="http://www.w3.org/2000/svg">
<path d="M1.55121e-05 2.25C1.55121e-05 2.05109 6.12501e-05 1.65904 0 1.5C0 1.5 0.551103 1.5 0.750016 1.5H3.00002C3.16731 1.50005 3.375 1.5 3.72751 1.5C3.75 1.875 3.75 1.875 3.75 1.875L4.33502 4.5H21.75C21.8601 4.5001 21.9689 4.52445 22.0685 4.57133C22.1682 4.6182 22.2563 4.68644 22.3266 4.77121C22.3969 4.85597 22.4477 4.95518 22.4753 5.06178C22.503 5.16838 22.5068 5.27976 22.4865 5.388L20.2365 17.388C20.2043 17.5599 20.25 17.625 20.1213 18C19.875 18 19.6749 17.9998 19.5 18H6.00002C5.82516 17.9998 5.625 18 5.37869 18C5.37869 17.7851 5.29569 17.5599 5.26351 17.388L3.01502 5.4105L2.41502 3H0.750016C0.551103 3 2.24132e-05 3 2.24132e-05 3C0 2.625 1.55121e-05 2.44891 1.55121e-05 2.25ZM4.65302 6L6.62252 16.5H18.8775L20.847 6H4.65302Z" fill="white"/>
<path d="M9.1875 21.5625C9.1875 22.598 8.34803 23.4375 7.3125 23.4375C6.27697 23.4375 5.4375 22.598 5.4375 21.5625C5.4375 20.527 6.27697 19.6875 7.3125 19.6875C8.34803 19.6875 9.1875 20.527 9.1875 21.5625Z" fill="white"/>
<path d="M19.5 21.5625C19.5 22.598 18.6605 23.4375 17.625 23.4375C16.5895 23.4375 15.75 22.598 15.75 21.5625C15.75 20.527 16.5895 19.6875 17.625 19.6875C18.6605 19.6875 19.5 20.527 19.5 21.5625Z" fill="white"/>
</svg>
