<svg width="48" height="48" viewBox="0 0 48 48" fill="none" xmlns="http://www.w3.org/2000/svg">
<path d="M42.5707 25.5766H42.0314V22.3408C42.0314 21.8914 41.6719 21.5318 41.3123 21.4419L40.5933 21.352C38.1664 20.9925 36.3687 18.9252 36.3687 16.4983V4.09416C36.3687 3.55485 36.0091 3.19531 35.4698 3.19531H30.0767C29.5374 3.19531 29.1779 3.55485 29.1779 4.09416V6.34128C25.942 7.77944 22.7961 7.77944 19.6501 6.34128V4.09416C19.6501 3.55485 19.2905 3.19531 18.7512 3.19531H13.3581C12.8188 3.19531 12.4593 3.55485 12.4593 4.09416V16.4983C12.4593 18.9252 10.6616 20.9925 8.23471 21.352L7.51563 21.4419C7.06621 21.5318 6.79656 21.8914 6.79656 22.3408V25.5766H6.25725C5.71794 25.5766 5.3584 25.9362 5.3584 26.4755V30.8798C5.3584 31.4192 5.71794 31.7787 6.25725 31.7787H6.79656V33.3067H6.25725C5.71794 33.3067 5.3584 33.6663 5.3584 34.2056V38.6099C5.3584 39.1493 5.71794 39.5088 6.25725 39.5088H6.79656V43.1042C6.79656 43.6435 7.1561 44.003 7.6954 44.003H41.0422C41.5815 44.003 41.941 43.6435 41.941 43.1042V39.5088H42.4803C43.0196 39.5088 43.3792 39.1493 43.3792 38.6099V34.2056C43.3792 33.6663 43.0196 33.3067 42.4803 33.3067H41.941V31.7787H42.4803C43.0196 31.7787 43.3792 31.4192 43.3792 30.8798V26.4755C43.4691 26.0261 43.0196 25.5766 42.5702 25.5766H42.5707ZM41.6719 27.3743V29.981H33.762V27.3743H41.6719ZM30.9761 4.9925H34.5715V15.5989H30.9761V4.9925ZM14.2575 4.9925H17.8529V15.5989H14.2575V4.9925ZM7.15661 29.9805V27.3738H15.0665V29.9805H7.15661ZM7.15661 37.7106V35.1039H15.0665V37.7106H7.15661ZM41.6724 35.1039V37.7106H33.7625V35.1039H41.6724ZM40.2342 33.3062H32.8637C32.3244 33.3062 31.9648 33.6658 31.9648 34.2051V38.6094C31.9648 39.1487 32.3244 39.5083 32.8637 39.5083H40.2342V42.2048H8.59477V39.5083H15.9653C16.5046 39.5083 16.8642 39.1487 16.8642 38.6094V34.2051C16.8642 33.6658 16.5046 33.3062 15.9653 33.3062H8.59477V31.7782H15.9653C16.5046 31.7782 16.8642 31.4186 16.8642 30.8793V26.475C16.8642 25.9357 16.5046 25.5761 15.9653 25.5761H8.59477V23.0593C11.561 22.52 13.8081 20.183 14.1676 17.3067H18.7518C19.2911 17.3067 19.6506 16.9472 19.6506 16.4079V8.22835C21.2685 8.85754 22.7966 9.21708 24.4145 9.21708C26.0324 9.21708 27.5605 8.85754 29.1784 8.22835V16.4079C29.1784 16.9472 29.5379 17.3067 30.0772 17.3067H34.6614C35.0209 20.183 37.268 22.6099 40.2342 23.0593V25.5761H32.8637C32.3244 25.5761 31.9648 25.9357 31.9648 26.475V30.8793C31.9648 31.4186 32.3244 31.7782 32.8637 31.7782H40.2342V33.3062Z" fill="black"/>
<rect x="31.957" y="25.5781" width="11.4247" height="6.20703" rx="0.8" fill="#758B6F"/>
<rect x="33.7607" y="27.3916" width="7.91017" height="2.58003" fill="white"/>
<rect x="5.3584" y="25.5781" width="11.5022" height="6.20703" rx="0.8" fill="#758B6F"/>
<rect x="7.1748" y="27.3916" width="7.96384" height="2.58003" fill="white"/>
<rect x="31.957" y="33.3145" width="11.4247" height="6.20703" rx="0.8" fill="#758B6F"/>
<rect x="33.7607" y="35.1279" width="7.91017" height="2.58003" fill="white"/>
<rect x="5.3584" y="33.3145" width="11.5022" height="6.20703" rx="0.8" fill="#758B6F"/>
<rect x="7.1748" y="35.1279" width="7.96384" height="2.58003" fill="white"/>
</svg>
