<svg width="48" height="48" viewBox="0 0 48 48" fill="none" xmlns="http://www.w3.org/2000/svg">
<path d="M15.7456 8.59668C12.1619 8.59668 9.72855 11.7515 9.72855 15.3074C9.72855 16.028 9.7276 16.8421 9.98326 17.6858C8.35729 18.0672 6.97152 19.2915 5.97674 20.9279C4.7692 22.9141 4.06543 25.5658 4.06543 28.4884C4.06543 31.4107 4.76921 34.0483 5.97674 36.0344C7.18396 38.0206 8.97263 39.4038 11.0593 39.4038H36.9399C39.0266 39.4038 40.8153 38.0205 42.0225 36.0344C43.2301 34.0482 43.9338 31.4107 43.9338 28.4884C43.9338 25.5658 43.2301 22.9141 42.0225 20.9279C41.3349 19.7969 40.4585 18.8624 39.446 18.2663C38.9308 17.5673 38.7946 16.4634 38.7946 15.3074C38.7946 12.6648 40.3321 10.6101 42.6596 10.423C42.9001 10.4135 43.1267 10.3092 43.29 10.1325C43.4534 9.95588 43.5397 9.72171 43.5305 9.48153C43.5211 9.24103 43.4165 9.01445 43.2401 8.85106C43.0635 8.68768 42.8293 8.6014 42.5888 8.61056H42.518L15.7456 8.59668ZM15.7456 10.4087L38.8513 10.4229C37.6779 11.6709 36.9826 13.4251 36.9826 15.3074C36.9826 16.0153 37.0123 16.8006 37.195 17.5727C37.109 17.5679 37.0272 17.5585 36.94 17.5585H11.866C11.543 16.8837 11.5405 16.2116 11.5405 15.3074C11.5405 12.5372 13.2008 10.4087 15.7455 10.4087H15.7456ZM11.0593 19.3703H33.3576C32.8225 19.9353 32.3441 20.6065 31.9418 21.3524C30.8964 23.2896 30.2994 25.7792 30.2994 28.4882C30.2994 31.1971 30.8963 33.6722 31.9418 35.6094C32.3441 36.3552 32.8225 37.0265 33.3576 37.5915H11.0593C9.77248 37.5915 8.51372 36.7348 7.51984 35.0997C6.52596 33.4649 5.87744 31.1149 5.87744 28.4881C5.87744 25.8613 6.52592 23.4972 7.51984 21.862C8.51372 20.2273 9.77248 19.3702 11.0593 19.3702V19.3703ZM36.855 19.3703H36.94C38.2268 19.3703 39.4856 20.2273 40.4794 21.8621C41.4733 23.4972 42.1218 25.8614 42.1218 28.4882C42.1218 31.1149 41.4734 33.465 40.4794 35.0997C39.4856 36.7349 38.2268 37.5916 36.94 37.5916H36.841C36.8034 37.5847 36.7655 37.5799 36.7276 37.5774C35.5716 37.3536 34.4159 36.3655 33.5421 34.7458C32.6683 33.1265 32.1121 30.9242 32.1121 28.4882C32.1121 26.052 32.6683 23.8357 33.5421 22.2161C34.4159 20.5968 35.5716 19.6228 36.7276 19.3988C36.7709 19.3924 36.8132 19.383 36.855 19.3703V19.3703ZM37.11 21.2534C36.4454 21.2534 35.8408 21.5701 35.3826 22.0037C34.9243 22.4372 34.5697 22.995 34.2784 23.6461C33.6957 24.9481 33.3724 26.6312 33.3724 28.4882C33.3724 30.3448 33.695 32.0312 34.2784 33.33C34.5701 33.9798 34.924 34.5404 35.3826 34.9724C35.8411 35.4045 36.4466 35.7088 37.11 35.7088C37.773 35.7088 38.3785 35.4044 38.8371 34.9724C39.296 34.5404 39.6499 33.9798 39.9416 33.33C40.5246 32.0312 40.8476 30.3449 40.8476 28.4882C40.8476 26.6313 40.5243 24.9481 39.9416 23.6461C39.6502 22.995 39.2956 22.4373 38.8371 22.0037C38.3788 21.5701 37.7746 21.2534 37.11 21.2534ZM37.11 23.0655C37.2263 23.0655 37.3723 23.1132 37.5913 23.3205C37.8103 23.5275 38.0637 23.8878 38.285 24.3823C38.7274 25.3709 39.0355 26.8508 39.0355 28.4881C39.0355 30.1251 38.7271 31.5949 38.285 32.5797C38.0641 33.072 37.81 33.4354 37.5913 33.6415C37.3726 33.8476 37.2279 33.8962 37.11 33.8962C36.9921 33.8962 36.8474 33.8475 36.6287 33.6415C36.4097 33.4355 36.1559 33.072 35.9347 32.5797C35.4929 31.5949 35.1845 30.1251 35.1845 28.4881C35.1845 26.8508 35.4923 25.3709 35.9347 24.3823C36.1559 23.8878 36.4094 23.5275 36.6287 23.3205C36.8477 23.1132 36.9934 23.0655 37.11 23.0655Z" fill="black"/>
<ellipse cx="37.0964" cy="28.4801" rx="3.85324" ry="7.26039" fill="#758B6F"/>
<ellipse cx="37.0964" cy="28.7371" rx="1.94313" ry="5.68042" fill="white"/>
</svg>
