<svg width="48" height="48" viewBox="0 0 48 48" fill="none" xmlns="http://www.w3.org/2000/svg">
<path d="M38.4539 9.45305L32.7 8.07481L30.6623 4H17.2177L15.1406 8.15424L9.71583 9.45376C7.45838 10.0032 6 11.7725 6 13.9617V39.88H12.24V40.66C12.24 41.9505 13.2895 43 14.58 43H33.3C34.5905 43 35.64 41.9505 35.64 40.66V39.88H41.88V13.9617C41.88 11.8829 40.4844 10.0328 38.4539 9.45305ZM26.876 5.56L23.9402 7.02774L21.0043 5.56H26.876ZM18.0491 5.82673L23.9402 8.77228L29.8313 5.82673L30.6632 7.49121L30.5131 7.55145L29.2585 8.05323L28.7038 8.27504L28.5123 8.35165L23.9402 10.1798L19.6906 8.48019L19.4402 8.37991L18.7313 8.09646L17.4767 7.59468L17.2169 7.49091L18.0491 5.82673ZM12.2402 38.3202H7.56018V36.7602H12.2402V38.3202ZM40.3202 38.3202H35.6402V36.7602H40.3202V38.3202ZM40.3202 35.2002H35.6402V15.7002H34.0802V40.6602C34.0802 41.0906 33.7306 41.4402 33.3002 41.4402H14.5802C14.1501 41.4402 13.8002 41.0906 13.8002 40.6602V15.7002H12.2402V35.2002H7.56018V13.9619C7.56018 12.5175 8.55118 11.343 10.0819 10.9707L17.3593 9.22753L19.0826 9.917L20.0402 10.3V17.2601H21.6002V10.9244L23.9402 11.8604L26.2802 10.9244V20.3798H27.8402V10.2995L29.0464 9.81687L30.6307 9.18312L38.0577 10.9614C39.39 11.3417 40.3201 12.5757 40.3201 13.9613L40.3202 35.2002Z" fill="black"/>
<path d="M17.7002 35.2002H30.1802V36.7602H17.7002V35.2002Z" fill="#758B6F"/>
<rect x="35.6406" y="35.1953" width="4.67578" height="1.56934" fill="#758B6F"/>
<rect x="7.57031" y="35.1953" width="4.67578" height="1.56934" fill="#758B6F"/>
<path d="M26.2695 10.918L27.8398 10.3086V20.3711H26.2695V10.918Z" fill="#758B6F"/>
<path d="M21.6025 10.8962L20.0322 10.3086V17.3955H21.6025V10.8962Z" fill="#758B6F"/>
</svg>
