<svg width="48" height="49" viewBox="0 0 48 49" fill="none" xmlns="http://www.w3.org/2000/svg">
<path fill-rule="evenodd" clip-rule="evenodd" d="M19.1249 17.4799C17.9403 17.4799 16.9799 18.4403 16.9799 19.6249C16.9799 20.8096 17.9403 21.7699 19.1249 21.7699C20.3096 21.7699 21.2699 20.8096 21.2699 19.6249C21.2699 18.4403 20.3096 17.4799 19.1249 17.4799ZM15.4199 19.6249C15.4199 17.5787 17.0787 15.9199 19.1249 15.9199C21.1711 15.9199 22.8299 17.5787 22.8299 19.6249C22.8299 21.6711 21.1711 23.3299 19.1249 23.3299C17.0787 23.3299 15.4199 21.6711 15.4199 19.6249Z" fill="#FF0000"/>
<path fill-rule="evenodd" clip-rule="evenodd" d="M28.8749 27.2299C27.6903 27.2299 26.7299 28.1903 26.7299 29.3749C26.7299 30.5596 27.6903 31.5199 28.8749 31.5199C30.0596 31.5199 31.0199 30.5596 31.0199 29.3749C31.0199 28.1903 30.0596 27.2299 28.8749 27.2299ZM25.1699 29.3749C25.1699 27.3287 26.8287 25.6699 28.8749 25.6699C30.9211 25.6699 32.5799 27.3287 32.5799 29.3749C32.5799 31.4211 30.9211 33.0799 28.8749 33.0799C26.8287 33.0799 25.1699 31.4211 25.1699 29.3749Z" fill="#FF0000"/>
<path fill-rule="evenodd" clip-rule="evenodd" d="M32.1558 16.3427C32.4604 16.6473 32.4604 17.1412 32.1558 17.4458L16.9458 32.6558C16.6412 32.9604 16.1473 32.9604 15.8427 32.6558C15.5381 32.3512 15.5381 31.8573 15.8427 31.5527L31.0527 16.3427C31.3573 16.0381 31.8512 16.0381 32.1558 16.3427Z" fill="#FF0000"/>
<path fill-rule="evenodd" clip-rule="evenodd" d="M24 6.56C14.092 6.56 6.06 14.592 6.06 24.5C6.06 34.408 14.092 42.44 24 42.44C33.908 42.44 41.94 34.408 41.94 24.5C41.94 14.592 33.908 6.56 24 6.56ZM4.5 24.5C4.5 13.7304 13.2304 5 24 5C34.7696 5 43.5 13.7304 43.5 24.5C43.5 35.2696 34.7696 44 24 44C13.2304 44 4.5 35.2696 4.5 24.5Z" fill="#FF0000"/>
</svg>
