<svg width="240" height="150" viewBox="0 0 240 150" fill="none" xmlns="http://www.w3.org/2000/svg">
<path d="M53.5583 63.0366C58.6748 63.0366 62.8343 66.4599 62.8343 70.2145C62.8343 74.8893 58.638 78.3126 53.5583 78.3126C48.4785 78.3126 44.2822 74.8893 44.2822 70.2145C44.2822 66.4967 48.4785 63.0366 53.5583 63.0366ZM53.5583 56.1899C44.0981 56.1899 35.411 61.9691 35.411 70.1777C35.411 78.9752 43.0306 85.1961 53.5583 85.1961C64.1227 85.1961 71.7423 78.9752 71.7423 70.1777C71.7423 61.9691 63.0552 56.1899 53.5583 56.1899Z" fill="#00000A"/>
<path d="M32.1718 66.2024C30.4417 64.2515 27.681 63.184 24.8098 63.184C19.6565 63.184 16.1963 66.5337 16.1963 70.7669C16.1963 75.0736 19.7301 78.2024 24.9203 78.2024C27.681 78.2024 30.4049 77.0981 32.1718 75.2945V83.7975C29.3743 84.5337 27.3865 85.0491 24.773 85.0491C20.2822 85.0491 15.9755 83.6135 12.6626 81.0368C9.09204 78.3129 7.47241 74.7791 7.47241 70.73C7.47241 67.0123 9.12885 63.4417 12.2209 60.7546C15.3865 57.9938 19.9877 56.3374 24.5154 56.3374C27.2025 56.3374 29.7055 56.8527 32.2086 57.7362V66.2024H32.1718Z" fill="#00000A"/>
<path d="M112.344 64.3984H114.331C119.742 64.3984 123.534 67.0487 123.534 71.7235C123.534 76.8401 119.264 79.0487 114.258 79.0487H112.38V64.3984H112.344ZM103.951 84.8278H115.841C124.785 84.8278 132.258 79.1223 132.258 71.7604C132.258 64.3984 124.859 58.6929 115.841 58.6929H103.951V84.8278Z" fill="#F9BE00"/>
<path d="M163.288 58.2881V73.012C163.288 76.3985 163.141 79.7114 159.976 82.2513C157.325 84.3862 153.166 85.1593 149.448 85.1593C145.767 85.1593 141.571 84.3862 138.92 82.2513C135.755 79.7114 135.607 76.3985 135.607 73.012V58.2881H143.853V72.0918C143.853 75.4783 144.147 79.1961 149.448 79.1961C154.749 79.1961 155.043 75.4783 155.043 72.0918V58.2881H163.288Z" fill="#F9BE00"/>
<path d="M177.018 63.552H177.828C180.552 63.552 183.644 63.9937 183.644 66.8649C183.644 69.7361 180.589 70.141 177.828 70.141H177.018V63.552ZM185.301 73.8956C189.865 73.233 192.331 70.0673 192.331 66.46C192.331 60.8281 187.509 58.3618 181.141 58.3618H168.626V84.7176H176.982V74.5949H177.055L189.644 91.417H200.061L185.301 73.8956Z" fill="#F9BE00"/>
<path d="M214.564 75.0734H207.644L211.068 66.7544H211.141L214.564 75.0734ZM216.81 80.2636L218.908 84.828H227.779L215.706 58.6562H206.614L194.319 84.828H203.153L205.362 80.2636H216.81Z" fill="#F9BE00"/>
<path d="M224.945 61.8587H225.423L226.16 63.1102H226.638L225.828 61.8587C226.233 61.8219 226.565 61.601 226.565 61.0857C226.565 60.5336 226.233 60.2759 225.571 60.2759H224.503V63.147H224.945V61.8587ZM224.945 61.4906V60.6072H225.534C225.828 60.6072 226.123 60.6808 226.123 61.0121C226.123 61.4538 225.792 61.4906 225.46 61.4906H224.945Z" fill="#F9BE00"/>
<path d="M225.423 64.5092C223.841 64.5092 222.552 63.184 222.552 61.5644C222.552 59.9448 223.841 58.6196 225.423 58.6196C227.006 58.6196 228.295 59.9448 228.295 61.5644C228.295 63.184 227.006 64.5092 225.423 64.5092ZM225.423 59.319C224.209 59.319 223.215 60.3497 223.215 61.6012C223.215 62.8528 224.209 63.8834 225.423 63.8834C226.638 63.8834 227.669 62.8528 227.669 61.6012C227.632 60.3129 226.638 59.319 225.423 59.319Z" fill="#F9BE00"/>
<path d="M83.043 63.5888H83.8528C86.5768 63.5888 89.6688 63.9937 89.6688 66.8649C89.6688 69.7361 86.6136 70.141 83.8528 70.141H83.043V63.5888ZM91.3252 73.8956C95.8897 73.233 98.3559 70.0673 98.3559 66.46C98.3559 60.8281 93.5338 58.3618 87.1657 58.3618H74.6504V84.7176H83.0062V74.5949H83.0798L95.6688 91.417H106.086L91.3252 73.8956Z" fill="#00000A"/>
</svg>
