<svg width="32" height="32" viewBox="0 0 32 32" fill="none" xmlns="http://www.w3.org/2000/svg">
<path d="M29.3337 16L24.0003 10.6666V14.6666H13.3337V17.3333H24.0003V21.3333M26.667 24C24.9879 26.2387 22.647 27.8924 19.9759 28.7268C17.3048 29.5612 14.4388 29.534 11.784 28.6491C9.12913 27.7641 6.82004 26.0663 5.18376 23.7961C3.54749 21.5259 2.66699 18.7984 2.66699 16C2.66699 13.2015 3.54749 10.474 5.18376 8.20382C6.82004 5.93362 9.12913 4.23579 11.784 3.35085C14.4388 2.46591 17.3048 2.43871 19.9759 3.27311C22.647 4.10751 24.9879 5.76121 26.667 7.99996H23.027C21.4874 6.64218 19.5887 5.75748 17.5588 5.45204C15.5289 5.14659 13.454 5.43337 11.583 6.27796C9.71201 7.12254 8.12448 8.48906 7.0109 10.2135C5.89732 11.938 5.30499 13.9472 5.30499 16C5.30499 18.0527 5.89732 20.0619 7.0109 21.7864C8.12448 23.5109 9.71201 24.8774 11.583 25.722C13.454 26.5665 15.5289 26.8533 17.5588 26.5479C19.5887 26.2424 21.4874 25.3577 23.027 24H26.667Z" fill="black"/>
</svg>
