<svg width="44" height="44" viewBox="0 0 44 44" fill="none" xmlns="http://www.w3.org/2000/svg">
<path d="M21.9997 0.333008C16.2533 0.333008 10.7423 2.61574 6.67903 6.67903C2.61574 10.7423 0.333008 16.2533 0.333008 21.9997C0.333008 27.746 2.61574 33.257 6.67903 37.3203C10.7423 41.3836 16.2533 43.6663 21.9997 43.6663C27.746 43.6663 33.257 41.3836 37.3203 37.3203C41.3836 33.257 43.6663 27.746 43.6663 21.9997C43.6663 16.2533 41.3836 10.7423 37.3203 6.67903C33.257 2.61574 27.746 0.333008 21.9997 0.333008Z" fill="#3F51B5"/>
<path d="M27.8153 22H24.1667V35H18.75V22H15.5V17.6667H18.75V15.0558C18.7522 11.2555 20.3306 9 24.808 9H28.5V13.3333H26.0224C24.2793 13.3333 24.1667 13.9833 24.1667 15.1999V17.6667H28.5L27.8153 22Z" fill="white"/>
</svg>
