<svg width="32" height="32" viewBox="0 0 32 32" fill="none" xmlns="http://www.w3.org/2000/svg">
<path d="M24.2292 8.89608C23.7337 8.40059 23.1454 8.00761 22.498 7.73958C21.8506 7.47154 21.1567 7.33372 20.4559 7.33398C19.7552 7.33425 19.0614 7.47259 18.4142 7.74111C17.767 8.00963 17.179 8.40305 16.6839 8.89891L16.0376 9.55308L15.3967 8.90033L15.3925 8.89616C14.8973 8.40091 14.3093 8.00806 13.6622 7.74003C13.0152 7.472 12.3216 7.33405 11.6213 7.33405C10.9209 7.33405 10.2273 7.472 9.58027 7.74003C8.9332 8.00806 8.34525 8.40091 7.85001 8.89616L7.56209 9.18408C6.5619 10.1843 6 11.5408 6 12.9553C6 14.3698 6.5619 15.7263 7.56209 16.7265L15.161 24.3253L16.0191 25.2244L16.0395 25.2039L16.0618 25.2261L16.8658 24.3778L24.5171 16.7264C25.5158 15.7254 26.0766 14.3692 26.0766 12.9552C26.0766 11.5412 25.5158 10.1849 24.5171 9.18395L24.2292 8.89608ZM23.5741 15.7836L16.0395 23.3183L8.50484 15.7836C7.7547 15.0335 7.33328 14.0161 7.33328 12.9552C7.33328 11.8943 7.7547 10.8769 8.50484 10.1268L8.7928 9.83887C9.54258 9.0891 10.5594 8.6677 11.6197 8.6673C12.6801 8.66691 13.6972 9.08753 14.4475 9.83674L16.0347 11.4529L17.6295 9.83887C18.0009 9.46743 18.4419 9.17279 18.9272 8.97177C19.4125 8.77075 19.9326 8.66728 20.4579 8.66728C20.9832 8.66728 21.5033 8.77075 21.9886 8.97177C22.4739 9.17279 22.9149 9.46743 23.2863 9.83887L23.5743 10.1267C24.3233 10.8775 24.7439 11.8947 24.7439 12.9552C24.7438 14.0157 24.3231 15.0329 23.5741 15.7836Z" fill="black"/>
</svg>
