<svg width="48" height="48" viewBox="0 0 48 48" fill="none" xmlns="http://www.w3.org/2000/svg">
<path d="M36.3438 13.3431C35.6005 12.5999 34.7181 12.0104 33.747 11.6084C32.7758 11.2063 31.735 10.9996 30.6839 11C29.6328 11.0004 28.5921 11.2079 27.6213 11.6107C26.6504 12.0135 25.7685 12.6036 25.0258 13.3474L24.0564 14.3286L23.095 13.3495L23.0888 13.3433C22.3459 12.6004 21.464 12.0111 20.4934 11.6091C19.5228 11.207 18.4825 11.0001 17.4319 11.0001C16.3813 11.0001 15.341 11.207 14.3704 11.6091C13.3998 12.0111 12.5179 12.6004 11.775 13.3433L11.3431 13.7751C9.84285 15.2754 9 17.3103 9 19.432C9 21.5537 9.84285 23.5885 11.3431 25.0888L22.7414 36.487L24.0286 37.8356L24.0593 37.8049L24.0926 37.8382L25.2986 36.5658L36.7756 25.0886C38.2737 23.5872 39.115 21.5528 39.115 19.4318C39.115 17.3108 38.2737 15.2764 36.7756 13.7749L36.3438 13.3431ZM35.3611 23.6744L24.0593 34.9765L12.7573 23.6744C11.6321 22.5492 10.9999 21.0231 10.9999 19.4318C10.9999 17.8405 11.6321 16.3144 12.7573 15.1892L13.1892 14.7573C14.3139 13.6327 15.8391 13.0006 17.4296 13C19.0201 12.9994 20.5458 13.6303 21.6713 14.7541L24.0521 17.1783L26.4442 14.7573C27.0014 14.2002 27.6628 13.7582 28.3907 13.4567C29.1187 13.1551 29.8989 12.9999 30.6869 12.9999C31.4748 12.9999 32.255 13.1551 32.983 13.4567C33.7109 13.7582 34.3724 14.2002 34.9295 14.7573L35.3614 15.1891C36.4849 16.3153 37.1158 17.8411 37.1158 19.4318C37.1157 21.0226 36.4847 22.5484 35.3611 23.6744Z" fill="white"/>
</svg>
