<svg width="48" height="48" viewBox="0 0 48 48" fill="none" xmlns="http://www.w3.org/2000/svg">
<path d="M26.2298 15.3074L39.5998 15.3074C40.0287 15.3074 40.4248 15.0786 40.6391 14.7074C40.8534 14.3361 40.8534 13.8786 40.6391 13.5074C40.4248 13.1361 40.0286 12.9074 39.5998 12.9074L26.2298 12.9074C25.8781 11.5253 24.9272 10.3726 23.6371 9.76462C22.3472 9.15658 20.853 9.15658 19.563 9.76462C18.2731 10.3727 17.3221 11.5253 16.9704 12.9074L8.40037 12.9074C7.97153 12.9074 7.57539 13.1361 7.3611 13.5074C7.14682 13.8786 7.14682 14.3361 7.3611 14.7074C7.57539 15.0786 7.97155 15.3074 8.40037 15.3074L16.9704 15.3074C17.3221 16.6895 18.273 17.8421 19.563 18.4502C20.853 19.0582 22.3472 19.0582 23.6371 18.4502C24.9271 17.8421 25.8781 16.6895 26.2298 15.3074ZM19.1998 14.1074C19.1998 13.471 19.4527 12.8605 19.9027 12.4102C20.3529 11.9602 20.9634 11.7074 21.5998 11.7074C22.2362 11.7074 22.8467 11.9602 23.297 12.4102C23.747 12.8605 23.9998 13.471 23.9998 14.1074C23.9998 14.7438 23.747 15.3543 23.297 15.8045C22.8467 16.2545 22.2362 16.5074 21.5998 16.5074C20.9634 16.5074 20.3529 16.2545 19.9027 15.8045C19.4527 15.3543 19.1998 14.7438 19.1998 14.1074Z" fill="white"/>
<path d="M35.8297 24.9074L39.6001 24.9074C40.0289 24.9074 40.425 24.6786 40.6393 24.3074C40.8536 23.9361 40.8536 23.4786 40.6393 23.1074C40.425 22.7361 40.0289 22.5074 39.6001 22.5074L35.8297 22.5074C35.478 21.1252 34.5272 19.9726 33.2371 19.3646C31.9471 18.7566 30.453 18.7566 29.163 19.3646C27.873 19.9726 26.9221 21.1252 26.5704 22.5074L8.40033 22.5074C7.9715 22.5074 7.57535 22.7361 7.36106 23.1074C7.14678 23.4786 7.14678 23.9361 7.36106 24.3074C7.57535 24.6786 7.97151 24.9074 8.40033 24.9074L26.5704 24.9074C26.9221 26.2895 27.873 27.4421 29.163 28.0501C30.453 28.6582 31.9471 28.6582 33.2371 28.0501C34.5271 27.4421 35.478 26.2895 35.8297 24.9074ZM28.7998 23.7074C28.7998 23.0709 29.0526 22.4605 29.5026 22.0102C29.9529 21.5602 30.5634 21.3074 31.1998 21.3074C31.8362 21.3074 32.4467 21.5602 32.8969 22.0102C33.3469 22.4605 33.5998 23.071 33.5998 23.7074C33.5998 24.3438 33.3469 24.9543 32.8969 25.4045C32.4467 25.8545 31.8362 26.1074 31.1998 26.1074C30.5634 26.1074 29.9529 25.8545 29.5026 25.4045C29.0526 24.9542 28.7998 24.3438 28.7998 23.7074Z" fill="white"/>
<path d="M21.4298 35.108L39.5998 35.108C40.0287 35.108 40.4248 34.8793 40.6391 34.508C40.8534 34.1368 40.8534 33.6793 40.6391 33.308C40.4248 32.9368 40.0286 32.708 39.5998 32.708L21.4298 32.708C21.0781 31.3259 20.1272 30.1733 18.8371 29.5653C17.5472 28.9572 16.053 28.9572 14.763 29.5653C13.4731 30.1733 12.5221 31.3259 12.1704 32.708L8.40009 32.708C7.97126 32.708 7.57511 32.9368 7.36082 33.308C7.14654 33.6793 7.14654 34.1368 7.36082 34.508C7.57511 34.8793 7.97127 35.108 8.40009 35.108L12.1704 35.108C12.5221 36.4902 13.473 37.6428 14.763 38.2508C16.053 38.8588 17.5472 38.8588 18.8371 38.2508C20.1271 37.6428 21.0781 36.4902 21.4298 35.108ZM14.3998 33.908C14.3998 33.2716 14.6527 32.6611 15.1027 32.2109C15.5529 31.7609 16.1634 31.508 16.7998 31.508C17.4362 31.508 18.0467 31.7609 18.497 32.2109C18.947 32.6612 19.1998 33.2716 19.1998 33.908C19.1998 34.5445 18.947 35.1549 18.497 35.6052C18.0467 36.0552 17.4362 36.308 16.7998 36.308C16.1634 36.308 15.5529 36.0552 15.1027 35.6052C14.6527 35.1549 14.3998 34.5445 14.3998 33.908Z" fill="white"/>
</svg>
