<svg width="42" height="43" viewBox="0 0 42 43" fill="none" xmlns="http://www.w3.org/2000/svg">
<path d="M41.7229 21.8415C41.7229 20.3894 41.5823 18.8906 41.3482 17.4854H21.0664V25.776H32.6827C32.2143 28.4459 30.6686 30.7879 28.3735 32.2868L35.3058 37.6734C39.3809 33.8794 41.7229 28.3522 41.7229 21.8415Z" fill="#4280EF"/>
<path d="M21.4886 42.9998C27.2968 42.9998 32.1681 41.0793 35.728 37.8005L28.7956 32.4608C26.8752 33.7723 24.3927 34.5217 21.4886 34.5217C15.8678 34.5217 11.1369 30.7277 9.40387 25.6689L2.28418 31.1492C5.9377 38.4094 13.3384 42.9998 21.4886 42.9998Z" fill="#34A353"/>
<path d="M9.40314 25.6225C8.51318 22.9527 8.51318 20.0486 9.40314 17.3787L2.28345 11.8516C-0.761151 17.9408 -0.761151 25.1073 2.28345 31.1497L9.40314 25.6225Z" fill="#F6B704"/>
<path d="M21.4886 8.52571C24.5332 8.47887 27.531 9.64987 29.7325 11.7577L35.8685 5.57478C31.9808 1.92126 26.8284 -0.0460226 21.4886 0.000817494C13.3384 0.000817494 5.9377 4.59114 2.28418 11.8514L9.40387 17.3785C11.1369 12.2729 15.8678 8.52571 21.4886 8.52571Z" fill="#E54335"/>
</svg>
