<svg width="64" height="64" viewBox="0 0 64 64" fill="none" xmlns="http://www.w3.org/2000/svg">
<path d="M41.199 24C36.779 24 32.9676 28.1457 31.4079 30.1122C29.8482 28.1454 26.0368 24 21.6168 24C17.4168 24 14 27.4168 14 31.6168C14 35.8169 17.4168 39.2336 21.6171 39.2336C26.3003 39.2336 29.901 35.2058 31.4082 33.1937C32.9153 35.2062 36.5157 39.2336 41.1993 39.2336C45.399 39.2336 48.8157 35.8169 48.8157 31.6168C48.8157 27.4168 45.3989 24 41.1989 24H41.199ZM21.6168 37.4409C18.4054 37.4409 15.7925 34.8281 15.7925 31.617C15.7925 28.4056 18.4054 25.7931 21.6168 25.7931C25.5554 25.7931 29.1994 30.1624 30.3179 31.6389C29.2786 33.1192 25.8779 37.441 21.6168 37.441V37.4409ZM41.199 37.4409C36.9508 37.4409 33.5415 33.1181 32.4987 31.6377C33.6179 30.1602 37.2612 25.793 41.199 25.793C44.4104 25.793 47.0233 28.4059 47.0233 31.6169C47.0229 34.8283 44.4104 37.4408 41.199 37.4408V37.4409Z" fill="white"/>
<path d="M58.6667 32.0002C58.6667 46.7278 46.7276 58.6668 32 58.6668C17.2724 58.6668 5.33337 46.7278 5.33337 32.0002C5.33337 17.2726 17.2724 5.3335 32 5.3335C46.7276 5.3335 58.6667 17.2726 58.6667 32.0002ZM7.77483 32.0002C7.77483 45.3794 18.6208 56.2254 32 56.2254C45.3793 56.2254 56.2253 45.3794 56.2253 32.0002C56.2253 18.6209 45.3793 7.77495 32 7.77495C18.6208 7.77495 7.77483 18.6209 7.77483 32.0002Z" fill="white"/>
</svg>
