<svg width="40" height="40" viewBox="0 0 40 40" fill="none" xmlns="http://www.w3.org/2000/svg">
<path d="M19.9938 7.18998C24.1667 7.18998 24.6565 7.20858 26.3058 7.28299C27.8311 7.35119 28.6558 7.60541 29.2076 7.82242C29.9392 8.10764 30.4601 8.44246 31.0057 8.9881C31.5513 9.53373 31.8924 10.0546 32.1714 10.7862C32.3822 11.338 32.6426 12.1627 32.7108 13.688C32.7852 15.3373 32.8038 15.8271 32.8038 20C32.8038 24.1729 32.7852 24.6627 32.7108 26.312C32.6426 27.8373 32.3884 28.662 32.1714 29.2138C31.8862 29.9454 31.5513 30.4663 31.0057 31.0119C30.4601 31.5575 29.9392 31.8986 29.2076 32.1776C28.6558 32.3884 27.8311 32.6488 26.3058 32.717C24.6565 32.7914 24.1667 32.81 19.9938 32.81C15.8209 32.81 15.3311 32.7914 13.6818 32.717C12.1565 32.6488 11.3318 32.3946 10.78 32.1776C10.0484 31.8924 9.52753 31.5575 8.98189 31.0119C8.43626 30.4663 8.09524 29.9454 7.81622 29.2138C7.60541 28.662 7.34499 27.8373 7.27679 26.312C7.20238 24.6627 7.18378 24.1729 7.18378 20C7.18378 15.8271 7.20238 15.3373 7.27679 13.688C7.34499 12.1627 7.59921 11.338 7.81622 10.7862C8.10144 10.0546 8.43626 9.53373 8.98189 8.9881C9.52753 8.44246 10.0484 8.10144 10.78 7.82242C11.3318 7.61161 12.1565 7.35119 13.6818 7.28299C15.3311 7.20238 15.8209 7.18998 19.9938 7.18998ZM19.9938 4.375C15.7527 4.375 15.2195 4.3936 13.5516 4.46801C11.8899 4.54241 10.7552 4.80903 9.76314 5.19345C8.73388 5.59028 7.86582 6.12971 6.99777 6.99777C6.12971 7.86582 5.59648 8.74008 5.19345 9.76314C4.80903 10.7552 4.54241 11.8899 4.46801 13.5578C4.3936 15.2195 4.375 15.7527 4.375 19.9938C4.375 24.2349 4.3936 24.7681 4.46801 26.436C4.54241 28.0977 4.80903 29.2324 5.19345 30.2307C5.59028 31.2599 6.12971 32.128 6.99777 32.996C7.86582 33.8641 8.74008 34.3973 9.76314 34.8003C10.7552 35.1848 11.8899 35.4514 13.5578 35.5258C15.2257 35.6002 15.7527 35.6188 20 35.6188C24.2473 35.6188 24.7743 35.6002 26.4422 35.5258C28.1039 35.4514 29.2386 35.1848 30.2369 34.8003C31.2661 34.4035 32.1342 33.8641 33.0022 32.996C33.8703 32.128 34.4035 31.2537 34.8065 30.2307C35.191 29.2386 35.4576 28.1039 35.532 26.436C35.6064 24.7681 35.625 24.2411 35.625 19.9938C35.625 15.7465 35.6064 15.2195 35.532 13.5516C35.4576 11.8899 35.191 10.7552 34.8065 9.75694C34.4097 8.72768 33.8703 7.85962 33.0022 6.99157C32.1342 6.12351 31.2599 5.59028 30.2369 5.18725C29.2448 4.80283 28.1101 4.53621 26.4422 4.46181C24.7681 4.3936 24.2349 4.375 19.9938 4.375Z" fill="black"/>
<path d="M19.9938 11.9707C15.5667 11.9707 11.9705 15.5607 11.9705 19.994C11.9705 24.4273 15.5667 28.0173 19.9938 28.0173C24.4209 28.0173 28.0171 24.4211 28.0171 19.994C28.0171 15.5669 24.4209 11.9707 19.9938 11.9707ZM19.9938 25.2023C17.1168 25.2023 14.7854 22.871 14.7854 19.994C14.7854 17.117 17.1168 14.7857 19.9938 14.7857C22.8708 14.7857 25.2021 17.117 25.2021 19.994C25.2021 22.871 22.8708 25.2023 19.9938 25.2023Z" fill="black"/>
<path d="M28.3332 13.5268C29.3674 13.5268 30.2057 12.6884 30.2057 11.6543C30.2057 10.6201 29.3674 9.78174 28.3332 9.78174C27.299 9.78174 26.4607 10.6201 26.4607 11.6543C26.4607 12.6884 27.299 13.5268 28.3332 13.5268Z" fill="#758B6F"/>
</svg>
