<svg width="80" height="50" viewBox="0 0 80 50" fill="none" xmlns="http://www.w3.org/2000/svg">
<path d="M0.504883 11.0987V0.734863H1.8856L17.3085 16.1477L32.7259 0.755294H33.8318V16.6663H46.6466C52.7708 17.5891 54.4836 23.3148 54.5745 26.0624C54.994 28.8644 52.8617 31.872 51.7431 33.0255C53.0644 33.7386 54.5238 36.8427 54.5238 40.0064C54.5238 47.1197 47.6743 49.238 46.6813 49.4823H25.7148V34.0447L33.8602 41.9057V42.7589H34.0991H43.6324C43.6324 42.7589 45.3112 41.7372 45.3112 40.0737C45.3112 38.4103 43.6324 37.4234 43.6324 37.4234H33.7806V38.3449L25.6693 30.427V19.4716L17.1257 27.6739L0.504883 11.0987Z" fill="white"/>
<path d="M33.8337 26.7993V23.958L43.6217 23.9475C44.1858 24.2226 45.316 25.1258 45.3244 26.5381C45.3327 27.9504 44.1927 28.7701 43.6217 29.0034H36.0796L33.8337 26.7993Z" fill="black"/>
<path d="M46.4297 0.739386V11.0946L63.0956 27.3674L71.0483 19.1929H71.6248V33.5041H79.4679V0.731934H78.3414L62.9374 15.8608L47.5365 0.739386H46.4297Z" fill="white"/>
<path d="M0.484131 33.7792H8.61158L8.624 22.8642L0.484131 15.0093V33.7792Z" fill="white"/>
</svg>
