<svg width="140" height="70" viewBox="0 0 140 70" fill="none" xmlns="http://www.w3.org/2000/svg">
<path d="M31.5049 23.0987V12.7349H32.8856L48.3085 28.1477L63.7259 12.7553H64.8318V28.6663H77.6466C83.7708 29.5891 85.4836 35.3148 85.5745 38.0624C85.994 40.8644 83.8617 43.872 82.7431 45.0255C84.0644 45.7386 85.5238 48.8427 85.5238 52.0064C85.5238 59.1197 78.6743 61.238 77.6813 61.4823H56.7148V46.0447L64.8602 53.9057V54.7589H65.0991H74.6324C74.6324 54.7589 76.3112 53.7372 76.3112 52.0737C76.3112 50.4103 74.6324 49.4234 74.6324 49.4234H64.7806V50.3449L56.6693 42.427V31.4716L48.1257 39.6739L31.5049 23.0987Z" fill="white"/>
<path d="M64.8337 38.7993V35.958L74.6217 35.9475C75.1858 36.2226 76.316 37.1258 76.3244 38.5381C76.3327 39.9504 75.1927 40.7701 74.6217 41.0034H67.0796L64.8337 38.7993Z" fill="black"/>
<path d="M77.4297 12.7394V23.0946L94.0956 39.3674L102.048 31.1929H102.625V45.5041H110.468V12.7319H109.341L93.9374 27.8608L78.5365 12.7394H77.4297Z" fill="white"/>
<path d="M31.4841 45.7792H39.6116L39.624 34.8642L31.4841 27.0093V45.7792Z" fill="white"/>
</svg>
