<svg width="60" height="40" viewBox="0 0 60 40" fill="none" xmlns="http://www.w3.org/2000/svg">
<rect width="60" height="40" rx="6" fill="white"/>
<g clip-path="url(#clip0_617_3260)">
<path d="M17.8872 34.4467V32.4882C17.8872 31.739 17.4308 31.2484 16.6474 31.2484C16.2557 31.2484 15.8297 31.3777 15.5369 31.8036C15.3087 31.4461 14.9817 31.2484 14.4911 31.2484C14.164 31.2484 13.837 31.3473 13.5783 31.7047V31.313H12.8938V34.4467H13.5783V32.7164C13.5783 32.1611 13.8712 31.8987 14.3275 31.8987C14.7839 31.8987 15.0121 32.1915 15.0121 32.7164V34.4467H15.6966V32.7164C15.6966 32.1611 16.0237 31.8987 16.4458 31.8987C16.9022 31.8987 17.1304 32.1915 17.1304 32.7164V34.4467H17.8872ZM28.0413 31.313H26.9308V30.3661H26.2463V31.313H25.6264V31.9329H26.2463V33.3705C26.2463 34.0893 26.5391 34.5114 27.3225 34.5114C27.6154 34.5114 27.9424 34.4125 28.1706 34.2832L27.9729 33.6937C27.7751 33.823 27.5469 33.8573 27.3834 33.8573C27.0563 33.8573 26.927 33.6595 26.927 33.3363V31.9329H28.0375V31.313H28.0413ZM33.8524 31.2446C33.4607 31.2446 33.1982 31.4423 33.0347 31.7009V31.3092H32.3502V34.4429H33.0347V32.6783C33.0347 32.1573 33.2629 31.8607 33.6888 31.8607C33.8181 31.8607 33.9817 31.8949 34.1148 31.9253L34.3125 31.2712C34.1756 31.2446 33.9817 31.2446 33.8524 31.2446ZM25.0711 31.5716C24.7441 31.3435 24.2877 31.2446 23.7971 31.2446C23.0137 31.2446 22.4927 31.6363 22.4927 32.2562C22.4927 32.7772 22.8844 33.0738 23.5689 33.1689L23.896 33.2031C24.2535 33.2678 24.4512 33.3667 24.4512 33.5302C24.4512 33.7584 24.1888 33.9219 23.7325 33.9219C23.2761 33.9219 22.9148 33.7584 22.6866 33.5949L22.3596 34.1159C22.7171 34.3783 23.2077 34.5076 23.6982 34.5076C24.611 34.5076 25.1358 34.0816 25.1358 33.496C25.1358 32.9407 24.7099 32.6479 24.0595 32.549L23.7325 32.5148C23.4396 32.4806 23.2115 32.4159 23.2115 32.222C23.2115 31.9938 23.4396 31.8645 23.8009 31.8645C24.1926 31.8645 24.5844 32.028 24.7821 32.1269L25.0711 31.5716ZM43.2839 31.2446C42.8922 31.2446 42.6298 31.4423 42.4663 31.7009V31.3092H41.7817V34.4429H42.4663V32.6783C42.4663 32.1573 42.6944 31.8607 43.1204 31.8607C43.2497 31.8607 43.4132 31.8949 43.5463 31.9253L43.7441 31.2788C43.611 31.2446 43.417 31.2446 43.2839 31.2446ZM34.5369 32.8799C34.5369 33.8268 35.191 34.5114 36.2026 34.5114C36.659 34.5114 36.9861 34.4125 37.3131 34.1539L36.9861 33.5987C36.7237 33.7964 36.4651 33.8915 36.1684 33.8915C35.6132 33.8915 35.2215 33.4998 35.2215 32.8799C35.2215 32.2904 35.6132 31.8987 36.1684 31.8683C36.4613 31.8683 36.7237 31.9672 36.9861 32.1611L37.3131 31.6059C36.9861 31.3435 36.659 31.2484 36.2026 31.2484C35.191 31.2446 34.5369 31.9329 34.5369 32.8799ZM40.869 32.8799V31.313H40.1844V31.7047C39.9562 31.4119 39.6292 31.2484 39.2032 31.2484C38.3209 31.2484 37.6364 31.9329 37.6364 32.8799C37.6364 33.8268 38.3209 34.5114 39.2032 34.5114C39.6596 34.5114 39.9867 34.3479 40.1844 34.055V34.4467H40.869V32.8799ZM38.3552 32.8799C38.3552 32.3246 38.7127 31.8683 39.3021 31.8683C39.8574 31.8683 40.2491 32.2942 40.2491 32.8799C40.2491 33.4351 39.8574 33.8915 39.3021 33.8915C38.7165 33.8573 38.3552 33.4313 38.3552 32.8799ZM30.1634 31.2446C29.2507 31.2446 28.5966 31.8987 28.5966 32.8761C28.5966 33.8573 29.2507 34.5076 30.1976 34.5076C30.654 34.5076 31.1104 34.3783 31.4717 34.0816L31.1446 33.5911C30.8822 33.7888 30.5551 33.9181 30.2319 33.9181C29.8059 33.9181 29.3838 33.7204 29.2849 33.1689H31.601C31.601 33.07 31.601 33.0054 31.601 32.9065C31.6314 31.8987 31.0419 31.2446 30.1634 31.2446ZM30.1634 31.8341C30.5894 31.8341 30.8822 32.0965 30.9468 32.5833H29.3153C29.38 32.1611 29.6728 31.8341 30.1634 31.8341ZM47.1706 32.8799V30.0732H46.4861V31.7047C46.2579 31.4119 45.9308 31.2484 45.5049 31.2484C44.6226 31.2484 43.938 31.9329 43.938 32.8799C43.938 33.8268 44.6226 34.5114 45.5049 34.5114C45.9613 34.5114 46.2883 34.3479 46.4861 34.055V34.4467H47.1706V32.8799ZM44.6568 32.8799C44.6568 32.3246 45.0143 31.8683 45.6038 31.8683C46.159 31.8683 46.5507 32.2942 46.5507 32.8799C46.5507 33.4351 46.159 33.8915 45.6038 33.8915C45.0143 33.8573 44.6568 33.4313 44.6568 32.8799ZM21.7397 32.8799V31.313H21.0551V31.7047C20.8269 31.4119 20.4999 31.2484 20.0739 31.2484C19.1916 31.2484 18.5071 31.9329 18.5071 32.8799C18.5071 33.8268 19.1916 34.5114 20.0739 34.5114C20.5303 34.5114 20.8574 34.3479 21.0551 34.055V34.4467H21.7397V32.8799ZM19.1954 32.8799C19.1954 32.3246 19.5529 31.8683 20.1424 31.8683C20.6976 31.8683 21.0894 32.2942 21.0894 32.8799C21.0894 33.4351 20.6976 33.8915 20.1424 33.8915C19.5529 33.8573 19.1954 33.4313 19.1954 32.8799Z" fill="black"/>
<path d="M35.1264 7.51367H24.843V25.9889H35.1264V7.51367Z" fill="#FF5A00"/>
<path d="M25.5276 16.7514C25.5276 12.9978 27.2922 9.66633 30 7.51381C28.0072 5.94696 25.4934 5 22.7514 5C16.2558 5 11 10.2558 11 16.7514C11 23.247 16.2558 28.5028 22.7514 28.5028C25.4934 28.5028 28.0072 27.5558 30 25.989C27.2884 23.8669 25.5276 20.505 25.5276 16.7514Z" fill="#EB001B"/>
<path d="M49 16.7514C49 23.247 43.7442 28.5028 37.2486 28.5028C34.5066 28.5028 31.9928 27.5558 30 25.989C32.742 23.8327 34.4724 20.505 34.4724 16.7514C34.4724 12.9978 32.7078 9.66633 30 7.51381C31.989 5.94696 34.5028 5 37.2448 5C43.7442 5 49 10.29 49 16.7514Z" fill="#F79E1B"/>
</g>
<defs>
<clipPath id="clip0_617_3260">
<rect width="38" height="29.5116" fill="white" transform="translate(11 5)"/>
</clipPath>
</defs>
</svg>
