<svg width="80" height="80" viewBox="0 0 80 80" fill="none" xmlns="http://www.w3.org/2000/svg">
<path d="M40.9539 30.3943C41.9883 30.3943 42.9579 30.1393 43.8338 29.7201L43.8343 63.9944C43.8343 65.5846 42.5445 66.8743 40.9544 66.8743H19.8344C16.1227 66.8743 13.1143 63.8659 13.1143 60.1542V27.9736C14.9415 29.4853 17.2839 30.3947 19.8344 30.3947L40.9539 30.3943Z" fill="#758B6F"/>
<path d="M65.9139 13.1143C66.4438 13.1143 66.8737 13.5442 66.8737 14.0741V58.2341C66.8737 58.764 66.4438 59.1939 65.9139 59.1939L47.6739 59.1943V23.6743C47.6739 19.9631 44.6654 16.9542 40.9538 16.9542H20.7938C19.7326 16.9542 18.8737 17.8131 18.8737 18.8743C18.8737 19.9355 19.7326 20.7945 20.7938 20.7945H40.9538C42.5418 20.7945 43.8337 22.0865 43.8337 23.6743C43.8341 25.2623 42.5417 26.5542 40.9538 26.5542H20.2143C16.5755 26.5542 13.3139 23.8297 13.1237 20.1957C12.921 16.3203 16.0031 13.1145 19.8345 13.1145L65.9139 13.1143Z" fill="black"/>
</svg>
