<svg width="60" height="40" viewBox="0 0 60 40" fill="none" xmlns="http://www.w3.org/2000/svg">
<rect width="60" height="40" rx="6" fill="white"/>
<path d="M4.93823 23.7884H8.42246V20.3042H4.93823V23.7884Z" fill="#222221"/>
<path d="M16.5158 23.7883H15.0068V18.4385H20.4389V23.7883H18.93V19.481H16.5158V23.7883Z" fill="#89AF39"/>
<path d="M22.4966 21.8403C22.4966 20.7704 23.155 20.5509 23.594 20.5509C24.0055 20.5509 24.6639 20.7704 24.6639 21.8403C24.6639 22.4988 24.3896 23.1572 23.594 23.1572C22.7709 23.1572 22.4966 22.4988 22.4966 21.8403ZM21.1797 19.9199V25.1874H22.5789V23.3767C23.0453 23.8705 23.8134 23.9254 23.978 23.9254C25.2949 23.9254 26.118 23.0749 26.118 21.8678C26.118 20.5783 25.3223 19.7827 24.0055 19.7827C23.6763 19.7827 23.0453 19.8376 22.4966 20.3863H22.4691V19.9199H21.1797Z" fill="#89AF39"/>
<path d="M29.5473 23.3218C29.026 23.7882 28.5322 23.9254 27.9835 23.9254C26.4745 23.9254 26.4197 22.8006 26.4197 22.3342V19.9199H27.8189V22.1696C27.8189 22.9378 28.0932 23.1572 28.587 23.1572C29.4649 23.1572 29.5198 22.3616 29.5198 22.0873V19.9199H30.919V23.7882H29.5198V23.3218H29.5473Z" fill="#89AF39"/>
<path d="M32.9218 20.6881H33.6625C34.0466 20.6881 34.4033 20.743 34.4033 21.0722C34.4033 21.4288 33.882 21.4288 33.6351 21.4288H32.9218V20.6881ZM31.55 19.9199V23.7882H34.321C35.3361 23.7882 36.0219 23.5962 36.0219 22.8006C36.0219 22.197 35.6927 21.9227 34.9245 21.7855V21.7581C35.4184 21.7032 35.8573 21.374 35.8573 20.8527C35.8573 19.9199 34.7599 19.9199 34.321 19.9199H31.55ZM32.9218 22.1421H33.7723C34.4307 22.1421 34.5679 22.3342 34.5679 22.6085C34.5679 22.7731 34.4856 22.9926 33.7997 22.9926H32.9218V22.1421Z" fill="#89AF39"/>
<path d="M39.369 22.1695C39.369 22.9376 38.6831 23.1297 38.3539 23.1297C38.107 23.1297 37.6406 23.0474 37.6406 22.6907C37.6406 22.2518 38.1618 22.1695 38.4636 22.142C39.0123 22.0597 38.9574 22.0872 39.369 21.95V22.1695ZM37.7503 21.1544C37.7503 20.5782 38.3539 20.5508 38.6008 20.5508C38.7654 20.5508 39.3415 20.5508 39.3415 21.0721C39.3415 21.0995 39.3415 21.1544 39.3415 21.1818C39.3141 21.5659 38.9574 21.4836 37.9149 21.6208C37.0644 21.7305 36.1865 21.95 36.1865 22.8279C36.1865 23.1571 36.3237 23.9527 37.8052 23.9527C38.3813 23.9527 38.9849 23.8155 39.369 23.4315H39.3964L39.5061 23.8155H40.9602V23.7607C40.6858 23.7058 40.6858 23.4589 40.6858 23.0199L40.7133 21.2641C40.7133 20.8251 40.6858 19.8101 38.5734 19.8101C38.0795 19.8101 36.4609 19.8649 36.3786 21.2092H37.7503V21.1544Z" fill="#89AF39"/>
<path d="M40.9053 20.6881V19.9199H45.3497V20.6881H43.8134V23.7882H42.4142V20.6881H40.9053Z" fill="#89AF39"/>
<path d="M4.93823 14.8994V19.2341H5.87102C8.28528 19.2341 9.51985 20.4687 9.51985 22.883V23.8157H13.8546V14.8994H4.93823ZM11.989 16.7375C11.989 17.9172 11.989 20.7705 11.989 21.9502C11.6598 21.9502 11.6049 21.9502 11.2757 21.9502C10.9739 19.3713 9.35524 17.7526 6.77637 17.4509C6.77637 17.1216 6.77637 17.0668 6.77637 16.7375C7.95607 16.7375 10.8093 16.7375 11.989 16.7375Z" fill="#89AF39"/>
<path d="M49.9863 22.5813V23.6787H45.8711C45.926 23.2672 46.0631 22.8831 46.2826 22.499C46.5021 22.1149 46.941 21.6485 47.5995 21.0175C48.1207 20.5237 48.45 20.1945 48.5871 20.0024C48.7518 19.7555 48.8341 19.5086 48.8341 19.2891C48.8341 19.0148 48.7518 18.8227 48.6146 18.6856C48.4774 18.5484 48.2854 18.4661 48.0384 18.4661C47.7915 18.4661 47.5995 18.5484 47.4623 18.6856C47.3251 18.8227 47.2428 19.0696 47.2154 19.4263L46.0357 19.3166C46.118 18.6581 46.3375 18.1917 46.6941 17.9174C47.0508 17.643 47.5172 17.5059 48.0659 17.5059C48.6694 17.5059 49.1358 17.6705 49.4925 17.9997C49.8491 18.3289 50.0138 18.7404 50.0138 19.2068C50.0138 19.4812 49.9589 19.7555 49.8766 20.0024C49.7668 20.2493 49.6297 20.5237 49.4102 20.798C49.273 20.9901 48.9987 21.237 48.642 21.5937C48.2579 21.9229 48.0384 22.1698 47.9287 22.2795C47.819 22.3893 47.7367 22.499 47.6818 22.6087H49.9863V22.5813Z" fill="black"/>
<path d="M53.0865 23.6787V22.4441H50.5625V21.4016L53.2237 17.5059H54.2113V21.4016H54.9795V22.4441H54.2113V23.6787H53.0865ZM53.0865 21.4016V19.3166L51.6873 21.4016H53.0865Z" fill="black"/>
</svg>
