<svg width="80" height="80" viewBox="0 0 80 80" fill="none" xmlns="http://www.w3.org/2000/svg">
<path d="M40 10L34.756 13.5746L28.5161 12.2856L25.0299 17.618L18.7899 18.7899L17.618 25.0299L12.2856 28.5161L13.5746 34.756L10 40L13.5746 45.244L12.2856 51.484L17.618 54.9701L18.7899 61.2101L25.0299 62.382L28.5161 67.7144L34.756 66.4254L40 70L45.244 66.4254L51.484 67.7144L54.9701 62.382L61.2101 61.2101L62.382 54.9701L67.7144 51.484L66.4254 45.244L70 40L66.4254 34.756L67.7144 28.5161L62.382 25.0299L61.2101 18.7899L54.9701 17.618L51.484 12.2856L45.244 13.5746L40 10ZM40 17.5002C52.4042 17.5002 62.5002 27.596 62.5002 40.0004C62.5002 52.4048 52.4044 62.5005 40 62.5005C27.5956 62.5005 17.4999 52.4048 17.4999 40.0004C17.4999 27.596 27.5956 17.5002 40 17.5002ZM40 21.2499C29.6225 21.2499 21.2499 29.6225 21.2499 40C21.2499 50.3776 29.6225 58.7502 40 58.7502C50.3775 58.7502 58.7501 50.3776 58.7501 40C58.7501 29.6225 50.3775 21.2499 40 21.2499ZM49.1116 30.566L53.2132 34.4041L39.1506 49.4046L37.2757 51.3964L35.2249 49.5797L26.7877 42.0795L30.5374 37.8903L36.9238 43.5738L49.1116 30.566Z" fill="black"/>
<path fill-rule="evenodd" clip-rule="evenodd" d="M34.756 13.5746L40 10L45.244 13.5746L51.484 12.2856L54.9701 17.618L61.2101 18.7899L62.382 25.0299L67.7144 28.5161L66.4254 34.756L70 40L66.4254 45.244L67.7144 51.484L62.382 54.9701L61.2101 61.2101L54.9701 62.382L51.484 67.7144L45.244 66.4254L40 70L34.756 66.4254L28.5161 67.7144L25.0299 62.382L18.7899 61.2101L17.618 54.9701L12.2856 51.484L13.5746 45.244L10 40L13.5746 34.756L12.2856 28.5161L17.618 25.0299L18.7899 18.7899L25.0299 17.618L28.5161 12.2856L34.756 13.5746ZM62.5002 40.0004C62.5002 27.596 52.4042 17.5002 40 17.5002C27.5956 17.5002 17.4999 27.596 17.4999 40.0004C17.4999 52.4048 27.5956 62.5005 40 62.5005C52.4044 62.5005 62.5002 52.4048 62.5002 40.0004Z" fill="#758B6F"/>
</svg>
