<svg width="60" height="40" viewBox="0 0 60 40" fill="none" xmlns="http://www.w3.org/2000/svg">
<rect width="60" height="40" rx="6" fill="white"/>
<g clip-path="url(#clip0_617_3250)">
<path d="M26.8 27.3104H22.9116L25.3437 12.2725H29.2318L26.8 27.3104Z" fill="#00579F"/>
<path d="M40.8956 12.6402C40.1287 12.336 38.9122 12 37.4081 12C33.5682 12 30.8643 14.0476 30.8477 16.9751C30.8158 19.135 32.7836 20.3346 34.2555 21.0548C35.7598 21.7907 36.2712 22.271 36.2712 22.927C36.2559 23.9344 35.0556 24.3988 33.9361 24.3988C32.3837 24.3988 31.5519 24.1594 30.2878 23.5989L29.7758 23.3586L29.2317 26.7343C30.1437 27.1498 31.8238 27.5185 33.5682 27.5346C37.6482 27.5346 40.3043 25.5187 40.3358 22.399C40.3513 20.6871 39.3122 19.3754 37.0719 18.3036C35.712 17.6155 34.8791 17.1516 34.8791 16.4475C34.895 15.8075 35.5835 15.152 37.1187 15.152C38.3828 15.1199 39.3116 15.4237 40.0151 15.7278L40.3668 15.8875L40.8956 12.6402Z" fill="#00579F"/>
<path d="M46.0635 21.983C46.3837 21.1191 47.6159 17.7755 47.6159 17.7755C47.5997 17.8076 47.9355 16.8956 48.1275 16.3358L48.3992 17.6315C48.3992 17.6315 49.1356 21.2311 49.2955 21.983C48.6878 21.983 46.8315 21.983 46.0635 21.983ZM50.8632 12.2725H47.8555C46.928 12.2725 46.2234 12.5442 45.8232 13.5202L40.0476 27.3102H44.1275C44.1275 27.3102 44.7992 25.4542 44.9436 25.0544C45.3912 25.0544 49.3601 25.0544 49.9359 25.0544C50.0475 25.5824 50.3998 27.3102 50.3998 27.3102H54.0001L50.8632 12.2725Z" fill="#00579F"/>
<path d="M19.6639 12.2725L15.856 22.5269L15.4398 20.4472C14.7358 18.0474 12.5279 15.4402 10.064 14.1438L13.5519 27.2944H17.6637L23.7755 12.2725H19.6639Z" fill="#00579F"/>
<path d="M12.32 12.2725H6.064L6 12.5763C10.88 13.8242 14.112 16.8323 15.4399 20.4478L14.0799 13.5365C13.856 12.5761 13.1679 12.3041 12.32 12.2725Z" fill="#FAA61A"/>
</g>
<defs>
<clipPath id="clip0_617_3250">
<rect width="48" height="15.5346" fill="white" transform="translate(6 12)"/>
</clipPath>
</defs>
</svg>
