<svg width="160" height="48" viewBox="0 0 160 48" fill="none" xmlns="http://www.w3.org/2000/svg">
<path d="M56.9562 39.3212C56.9562 41.8196 57.2331 45.2735 56.1855 46.6431H72.5609C71.5133 45.2735 71.7903 41.8196 71.7903 39.3212V7.85157C71.7903 5.3525 71.5133 1.90025 72.5609 0.529728H56.1855C57.2331 1.90025 56.9562 5.3525 56.9562 7.85157V39.3212Z" fill="#0081BF"/>
<path d="M27.5803 15.4438L35.5366 3.35142C36.7458 1.65795 37.4815 0.529728 40.3032 0.529728H54.6308C52.7763 2.06156 51.8568 3.35142 50.5669 5.1249L34.9168 27.1332V40.809C34.9168 42.9041 34.8326 45.6768 35.5719 46.6431H19.5887C20.3277 45.6768 20.2441 42.9041 20.2441 40.809V27.1332L4.59334 5.1249C3.30348 3.35142 2.38359 2.06156 0.529785 0.529728H14.857C17.6787 0.529728 18.4144 1.65795 19.624 3.35142L27.5803 15.4438Z" fill="#0081BF"/>
<path d="M71.2149 22.619L84.9165 42.2902C86.6906 44.5463 88.3028 46.6431 92.1723 46.6431H106.814C104.866 45.7581 103.142 43.4703 102.767 43.0955L87.3832 22.2507L102.213 4.02182C103.146 3.08986 104.356 1.8787 105.773 0.529728H91.3687C87.4991 0.529728 86.2341 2.62583 84.4606 4.88293L71.1025 22.619H71.2149Z" fill="#0081BF"/>
<path d="M109.613 39.3212C109.613 41.8196 109.889 45.2735 108.841 46.6431H125.216C124.169 45.2735 124.446 41.8196 124.446 39.3212V7.85157C124.446 5.3525 124.169 1.90025 125.216 0.529728H108.841C109.889 1.90025 109.613 5.3525 109.613 7.85157V39.3212Z" fill="#0081BF"/>
<path d="M123.87 22.619L137.572 42.2902C139.347 44.5463 140.958 46.6431 144.828 46.6431H159.47C157.522 45.7581 155.798 43.4703 155.423 43.0955L140.038 22.2507L154.869 4.02182C155.801 3.08986 157.011 1.8787 158.429 0.529728H144.025C140.155 0.529728 138.89 2.62583 137.116 4.88293L123.759 22.619H123.87Z" fill="#0081BF"/>
</svg>
